<svg width="24" height="24" viewBox="0 0 24 24" fill="none" xmlns="http://www.w3.org/2000/svg">
<path d="M4.48126 11.4317C4.32771 11.2824 4.24144 11.0799 4.24144 10.8688C4.24144 10.6576 4.32771 10.4551 4.48126 10.3058L10.27 4.68145C10.7994 4.15355 11.4313 3.7331 12.1291 3.44448C12.8269 3.15586 13.5767 3.00482 14.335 3.00011C15.0934 2.99541 15.8451 3.13714 16.5466 3.41708C17.2482 3.69702 17.8855 4.1096 18.4218 4.63089C18.9581 5.15218 19.3825 5.7718 19.6706 6.45382C19.9586 7.13583 20.1045 7.86666 20.0998 8.60392C20.0951 9.34117 19.9398 10.0702 19.6431 10.7487C19.3463 11.4271 18.9139 12.0416 18.371 12.5563L10.8484 19.8701C10.0777 20.6007 9.04192 21.0066 7.9655 20.9999C6.88909 20.9932 5.85875 20.5744 5.09776 19.8342C4.33676 19.094 3.90642 18.0921 3.89998 17.0456C3.89353 15.9991 4.31151 14.9922 5.06334 14.2433L11.428 8.05537C11.8904 7.61656 12.512 7.37263 13.1581 7.37648C13.8043 7.38033 14.4228 7.63164 14.8796 8.07592C15.3364 8.5202 15.5947 9.12164 15.5984 9.74982C15.6021 10.378 15.351 10.9823 14.8995 11.4317L10.27 15.9314C10.1166 16.0806 9.90856 16.1643 9.69162 16.1643C9.47469 16.1643 9.26664 16.0806 9.11324 15.9314C8.95985 15.7823 8.87367 15.58 8.87367 15.3691C8.87367 15.1582 8.95985 14.9559 9.11324 14.8068L13.7415 10.3058C13.8175 10.232 13.8777 10.1443 13.9188 10.0478C13.9599 9.95136 13.9811 9.84795 13.9811 9.74352C13.9811 9.63909 13.9599 9.53568 13.9188 9.4392C13.8777 9.34271 13.8175 9.25505 13.7415 9.1812C13.6656 9.10736 13.5754 9.04878 13.4762 9.00882C13.3769 8.96885 13.2706 8.94828 13.1631 8.94828C13.0557 8.94828 12.9494 8.96885 12.8501 9.00882C12.7509 9.04878 12.6607 9.10736 12.5848 9.1812L6.2201 15.3691C5.75975 15.8167 5.50113 16.4237 5.50113 17.0567C5.50113 17.3701 5.56462 17.6804 5.68798 17.97C5.81134 18.2595 5.99216 18.5226 6.2201 18.7442C6.44805 18.9658 6.71865 19.1416 7.01648 19.2616C7.3143 19.3815 7.6335 19.4432 7.95586 19.4432C8.6069 19.4432 9.23127 19.1918 9.69162 18.7442L17.2143 11.4305C17.6092 11.0644 17.9248 10.6253 18.1426 10.1389C18.3604 9.65247 18.4759 9.12863 18.4823 8.59818C18.4888 8.06774 18.3861 7.54139 18.1802 7.05011C17.9743 6.55884 17.6694 6.11256 17.2835 5.73752C16.8976 5.36249 16.4385 5.06629 15.9331 4.86634C15.4277 4.66639 14.8863 4.56674 14.3407 4.57324C13.7951 4.57974 13.2563 4.69226 12.7561 4.90419C12.2559 5.11612 11.8043 5.42318 11.428 5.80729L5.64172 11.4317C5.48821 11.5806 5.2802 11.6642 5.06334 11.6642C4.84648 11.6642 4.63847 11.5806 4.48496 11.4317" fill="#2D2D2D"/>
</svg>
