<svg width="24" height="24" viewBox="0 0 24 24" fill="none" xmlns="http://www.w3.org/2000/svg">
<path d="M17.0625 9H16.2188V7.28571C16.2188 4.92 14.3288 3 12 3C9.67125 3 7.78125 4.92 7.78125 7.28571V9H6.9375C6.00938 9 5.25 9.77143 5.25 10.7143V19.2857C5.25 20.2286 6.00938 21 6.9375 21H17.0625C17.9906 21 18.75 20.2286 18.75 19.2857V10.7143C18.75 9.77143 17.9906 9 17.0625 9ZM9.46875 7.28571C9.46875 5.86286 10.5994 4.71429 12 4.71429C13.4006 4.71429 14.5312 5.86286 14.5312 7.28571V9H9.46875V7.28571ZM17.0625 19.2857H6.9375V10.7143H17.0625V19.2857Z" fill="#2D2D2D"/>
</svg>
