<svg width="24" height="24" viewBox="0 0 24 24" fill="none" xmlns="http://www.w3.org/2000/svg">
<path d="M5.829 21C5.07895 20.9992 4.35984 20.7009 3.82947 20.1706C3.2991 19.6402 3.00079 18.9211 3 18.1711V7.88636C3.00096 7.18105 3.265 6.50146 3.74048 5.98049C4.21596 5.45953 4.86869 5.13467 5.571 5.06944V3.77148C5.571 3.56687 5.65228 3.37064 5.79697 3.22596C5.94165 3.08128 6.13789 3 6.3425 3C6.54711 3 6.74335 3.08128 6.88803 3.22596C7.03272 3.37064 7.114 3.56687 7.114 3.77148V5.05744H11.229V3.77148C11.229 3.56687 11.3103 3.37064 11.455 3.22596C11.5997 3.08128 11.7959 3 12.0005 3C12.2051 3 12.4013 3.08128 12.546 3.22596C12.6907 3.37064 12.772 3.56687 12.772 3.77148V5.05744H16.887V3.77148C16.887 3.56687 16.9683 3.37064 17.113 3.22596C17.2577 3.08128 17.4539 3 17.6585 3C17.8631 3 18.0593 3.08128 18.204 3.22596C18.3487 3.37064 18.43 3.56687 18.43 3.77148V5.07144C19.1318 5.13687 19.784 5.46155 20.2592 5.98207C20.7344 6.50258 20.9986 7.18155 21 7.88636V18.1711C20.9992 18.9211 20.7009 19.6402 20.1705 20.1706C19.6402 20.7009 18.9211 20.9992 18.171 21H5.829ZM4.543 18.1711C4.54353 18.512 4.67919 18.8388 4.92024 19.0798C5.1613 19.3209 5.48809 19.4565 5.829 19.457H18.171C18.5119 19.4565 18.8387 19.3209 19.0798 19.0798C19.3208 18.8388 19.4565 18.512 19.457 18.1711V11.2293H4.543V18.1711ZM19.457 9.68631V7.88636C19.4565 7.54547 19.3208 7.21869 19.0798 6.97763C18.8387 6.73658 18.5119 6.60093 18.171 6.6004H5.829C5.48809 6.60093 5.1613 6.73658 4.92024 6.97763C4.67919 7.21869 4.54353 7.54547 4.543 7.88636V9.68631H19.457Z" fill="#2D2D2D"/>
</svg>
