<svg width="24" height="24" viewBox="0 0 24 24" fill="none" xmlns="http://www.w3.org/2000/svg">
<path d="M15.7927 16.7966L12.0071 13.0087L8.21681 16.7966C8.15088 16.8629 8.07255 16.9155 7.98628 16.9515C7.90002 16.9875 7.80752 17.0061 7.71406 17.0063C7.6206 17.0066 7.52801 16.9884 7.44158 16.9528C7.35515 16.9172 7.27657 16.8649 7.21033 16.7989C7.14408 16.733 7.09148 16.6546 7.05551 16.5683C7.01954 16.482 7.00091 16.3894 7.00069 16.2959C7.00047 16.2024 7.01866 16.1097 7.05423 16.0232C7.08979 15.9368 7.14203 15.8581 7.20796 15.7919L10.9982 12.004L7.20796 8.20671C7.07481 8.07347 7 7.89277 7 7.70434C7 7.51592 7.07481 7.33522 7.20796 7.20198C7.34111 7.06875 7.52171 6.9939 7.71002 6.9939C7.89833 6.9939 8.07892 7.06875 8.21208 7.20198L12.0024 10.9946L15.7879 7.20198C15.9211 7.06875 16.1017 6.9939 16.29 6.9939C16.4783 6.9939 16.6589 7.06875 16.792 7.20198C16.9252 7.33522 17 7.51592 17 7.70434C17 7.89277 16.9252 8.07347 16.792 8.20671L13.0065 11.9993L16.792 15.7871C16.9252 15.9204 17 16.1011 17 16.2895C17 16.4779 16.9252 16.6586 16.792 16.7918C16.6589 16.9251 16.4783 16.9999 16.29 16.9999C16.1017 16.9999 15.9211 16.9251 15.7879 16.7918L15.7927 16.7966Z" fill="#2D2D2D"/>
</svg>
