<svg width="24" height="24" viewBox="0 0 24 24" fill="none" xmlns="http://www.w3.org/2000/svg">
<path d="M11.2902 18.0734L11.2918 12.7183L5.93327 12.7165C5.83978 12.7168 5.74716 12.6986 5.66072 12.6631C5.57427 12.6275 5.49569 12.5753 5.42944 12.5093C5.3632 12.4434 5.3106 12.3651 5.27465 12.2788C5.23869 12.1925 5.22009 12.1 5.2199 12.0065C5.21971 11.913 5.23793 11.8204 5.27353 11.7339C5.30913 11.6475 5.36141 11.5688 5.42738 11.5026C5.49335 11.4363 5.57172 11.3836 5.65802 11.3476C5.74432 11.3116 5.83686 11.293 5.93035 11.2927L11.2889 11.2944L11.2939 5.9292C11.2939 5.74083 11.3688 5.56016 11.502 5.42692C11.6353 5.29369 11.8159 5.21881 12.0043 5.21875C12.1927 5.21869 12.3733 5.29347 12.5065 5.42662C12.6396 5.55977 12.7144 5.7404 12.7143 5.92877L12.7127 11.2907L18.0713 11.2857C18.2596 11.2856 18.4402 11.3604 18.5734 11.4936C18.7066 11.6267 18.7813 11.8074 18.7813 11.9957C18.7812 12.1841 18.7063 12.3648 18.5731 12.498C18.4399 12.6312 18.2592 12.7061 18.0708 12.7062L12.7123 12.7111L12.7107 18.0663C12.7106 18.2547 12.6357 18.4354 12.5025 18.5686C12.3693 18.7018 12.1886 18.7767 12.0002 18.7768C11.8119 18.7768 11.6312 18.7021 11.4981 18.5689C11.3649 18.4357 11.2901 18.2551 11.2902 18.0668L11.2902 18.0734Z" fill="#2D2D2D"/>
</svg>
