<svg width="24" height="24" viewBox="0 0 24 24" fill="none" xmlns="http://www.w3.org/2000/svg">
<path d="M5.829 21C5.07895 20.9992 4.35984 20.7009 3.82947 20.1706C3.2991 19.6402 3.00079 18.9211 3 18.1711V7.88636C3.00073 7.18098 3.2647 6.50127 3.74022 5.98026C4.21575 5.45925 4.8686 5.13445 5.571 5.06944V3.77148C5.571 3.56687 5.65228 3.37064 5.79697 3.22596C5.94165 3.08128 6.13789 3 6.3425 3C6.54711 3 6.74335 3.08128 6.88803 3.22596C7.03272 3.37064 7.114 3.56687 7.114 3.77148V5.05744H11.229V3.77148C11.229 3.56687 11.3103 3.37064 11.455 3.22596C11.5997 3.08128 11.7959 3 12.0005 3C12.2051 3 12.4013 3.08128 12.546 3.22596C12.6907 3.37064 12.772 3.56687 12.772 3.77148V5.05744H16.887V3.77148C16.887 3.56687 16.9683 3.37064 17.113 3.22596C17.2577 3.08128 17.4539 3 17.6585 3C17.8631 3 18.0593 3.08128 18.204 3.22596C18.3487 3.37064 18.43 3.56687 18.43 3.77148V5.07144C19.1319 5.13665 19.7842 5.46127 20.2595 5.98183C20.7347 6.50239 20.9988 7.18149 21 7.88636V18.1711C20.9992 18.9211 20.7009 19.6402 20.1705 20.1706C19.6402 20.7009 18.9211 20.9992 18.171 21H5.829ZM4.543 7.88636V18.1711C4.54353 18.512 4.67919 18.8388 4.92024 19.0798C5.1613 19.3209 5.48809 19.4565 5.829 19.457H18.171C18.5119 19.4565 18.8387 19.3209 19.0798 19.0798C19.3208 18.8388 19.4565 18.512 19.457 18.1711V7.88636C19.4565 7.54547 19.3208 7.21868 19.0798 6.97763C18.8387 6.73658 18.5119 6.60093 18.171 6.6004H5.829C5.48809 6.60093 5.1613 6.73658 4.92024 6.97763C4.67919 7.21868 4.54353 7.54547 4.543 7.88636ZM15.087 13.0292C15.087 12.8257 15.1474 12.6268 15.2604 12.4576C15.3735 12.2883 15.5342 12.1565 15.7222 12.0786C15.9102 12.0007 16.1171 11.9803 16.3167 12.02C16.5164 12.0597 16.6997 12.1577 16.8436 12.3016C16.9875 12.4455 17.0855 12.6289 17.1252 12.8285C17.1649 13.0281 17.1446 13.235 17.0667 13.423C16.9888 13.611 16.8569 13.7717 16.6877 13.8848C16.5185 13.9978 16.3195 14.0582 16.116 14.0582C15.9808 14.0583 15.8469 14.0318 15.7219 13.9802C15.597 13.9285 15.4834 13.8527 15.3877 13.7572C15.2921 13.6616 15.2162 13.5481 15.1644 13.4232C15.1126 13.2983 15.086 13.1644 15.086 13.0292H15.087ZM10.972 13.0292C10.9718 12.8256 11.032 12.6265 11.145 12.4572C11.258 12.2878 11.4187 12.1558 11.6068 12.0778C11.7948 11.9998 12.0018 11.9793 12.2015 12.019C12.4012 12.0586 12.5846 12.1567 12.7286 12.3006C12.8726 12.4446 12.9706 12.628 13.0103 12.8277C13.0499 13.0274 13.0295 13.2344 12.9515 13.4225C12.8735 13.6105 12.7414 13.7712 12.5721 13.8842C12.4027 13.9972 12.2036 14.0574 12 14.0572C11.7273 14.0572 11.4657 13.9489 11.2727 13.7562C11.0798 13.5634 10.9713 13.3019 10.971 13.0292H10.972ZM6.858 13.0292C6.858 12.8257 6.91835 12.6268 7.03142 12.4576C7.14449 12.2883 7.30519 12.1565 7.49322 12.0786C7.68124 12.0007 7.88814 11.9803 8.08775 12.02C8.28735 12.0597 8.47071 12.1577 8.61461 12.3016C8.75852 12.4455 8.85652 12.6289 8.89623 12.8285C8.93593 13.0281 8.91556 13.235 8.83767 13.423C8.75979 13.611 8.6279 13.7717 8.45868 13.8848C8.28946 13.9978 8.09052 14.0582 7.887 14.0582C7.75179 14.0583 7.61787 14.0318 7.49291 13.9802C7.36795 13.9285 7.2544 13.8527 7.15874 13.7572C7.06308 13.6616 6.9872 13.5481 6.93542 13.4232C6.88365 13.2983 6.857 13.1644 6.857 13.0292H6.858Z" fill="#2D2D2D"/>
</svg>
