<svg width="24" height="24" viewBox="0 0 24 24" fill="none" xmlns="http://www.w3.org/2000/svg">
<path d="M15.158 21H8.843C8.28927 21.0007 7.75477 20.7969 7.34196 20.4279C6.92915 20.0588 6.66709 19.5504 6.606 19L5.329 7.5H5.25C5.05109 7.5 4.86032 7.42098 4.71967 7.28033C4.57902 7.13968 4.5 6.94891 4.5 6.75C4.5 6.55109 4.57902 6.36032 4.71967 6.21967C4.86032 6.07902 5.05109 6 5.25 6H9V5.25C9.00079 4.65351 9.2381 4.08167 9.65989 3.65989C10.0817 3.2381 10.6535 3.00079 11.25 3H12.75C13.3465 3.00079 13.9183 3.2381 14.3401 3.65989C14.7619 4.08167 14.9992 4.65351 15 5.25V6H18.75C18.9489 6 19.1397 6.07902 19.2803 6.21967C19.421 6.36032 19.5 6.55109 19.5 6.75C19.5 6.94891 19.421 7.13968 19.2803 7.28033C19.1397 7.42098 18.9489 7.5 18.75 7.5H18.672L17.393 19C17.3324 19.5502 17.0707 20.0586 16.6582 20.4277C16.2458 20.7968 15.7115 21.0006 15.158 21ZM6.837 7.5L8.1 18.833C8.1202 19.0164 8.20741 19.1859 8.34489 19.309C8.48238 19.4321 8.66046 19.5001 8.845 19.5H15.16C15.3445 19.5001 15.5226 19.4321 15.6601 19.309C15.7976 19.1859 15.8848 19.0164 15.905 18.833L17.162 7.5H6.837ZM11.25 4.5C11.0512 4.50026 10.8606 4.57937 10.72 4.71996C10.5794 4.86056 10.5003 5.05117 10.5 5.25V6H13.5V5.25C13.4997 5.05117 13.4206 4.86056 13.28 4.71996C13.1394 4.57937 12.9488 4.50026 12.75 4.5H11.25ZM13.5 17.25C13.3012 17.2497 13.1106 17.1706 12.97 17.03C12.8294 16.8894 12.7503 16.6988 12.75 16.5V10.5C12.75 10.3011 12.829 10.1103 12.9697 9.96967C13.1103 9.82902 13.3011 9.75 13.5 9.75C13.6989 9.75 13.8897 9.82902 14.0303 9.96967C14.171 10.1103 14.25 10.3011 14.25 10.5V16.5C14.2497 16.6988 14.1706 16.8894 14.03 17.03C13.8894 17.1706 13.6988 17.2497 13.5 17.25ZM10.5 17.25C10.301 17.25 10.1101 17.171 9.96932 17.0304C9.82851 16.8898 9.74927 16.699 9.749 16.5V10.5C9.749 10.3011 9.82802 10.1103 9.96867 9.96967C10.1093 9.82902 10.3001 9.75 10.499 9.75C10.6979 9.75 10.8887 9.82902 11.0293 9.96967C11.17 10.1103 11.249 10.3011 11.249 10.5V16.5C11.2487 16.6987 11.1698 16.8891 11.0294 17.0297C10.889 17.1702 10.6987 17.2495 10.5 17.25Z" fill="#2D2D2D"/>
</svg>
