<svg width="24" height="24" viewBox="0 0 24 24" fill="none" xmlns="http://www.w3.org/2000/svg">
<path d="M7.19739 21H3.81226C3.59693 20.9997 3.39051 20.914 3.23825 20.7617C3.08598 20.6094 3.00031 20.403 3.00001 20.1876V16.8006C2.99893 16.4806 3.06142 16.1634 3.18386 15.8677C3.3063 15.572 3.48625 15.3035 3.71326 15.0779L15.0758 3.71309C15.5325 3.25649 16.1518 3 16.7976 3C17.4433 3 18.0627 3.25649 18.5194 3.71309L20.2879 5.47182C20.7439 5.92913 21 6.54866 21 7.19455C21 7.84044 20.7439 8.45997 20.2879 8.91728L8.92539 20.2821C8.69927 20.5103 8.43007 20.6913 8.13342 20.8145C7.83678 20.9377 7.51861 21.0008 7.19739 21ZM13.5548 7.53099L4.86189 16.2268C4.78638 16.302 4.72653 16.3914 4.68578 16.4899C4.64504 16.5884 4.62422 16.694 4.62451 16.8006V19.3763H7.19739C7.30414 19.3767 7.40991 19.3559 7.50859 19.3151C7.60726 19.2744 7.69688 19.2145 7.77226 19.1389L16.4651 10.4442L13.5548 7.53099ZM16.8026 4.62002C16.6959 4.6197 16.5901 4.64051 16.4915 4.68126C16.3928 4.72201 16.3032 4.78189 16.2278 4.85745L14.7 6.38326L17.6138 9.2976L19.1393 7.77179C19.2907 7.61919 19.3756 7.41292 19.3756 7.19793C19.3756 6.98293 19.2907 6.77666 19.1393 6.62406L17.3753 4.85745C17.3001 4.78187 17.2107 4.72197 17.1122 4.68122C17.0137 4.64046 16.9081 4.61966 16.8015 4.62002H16.8026Z" fill="#2D2D2D"/>
</svg>
