<svg width="24" height="24" viewBox="0 0 24 24" fill="none" xmlns="http://www.w3.org/2000/svg">
<path d="M9.73488 21C9.49319 20.9989 9.25492 20.9428 9.03813 20.8359C8.82134 20.729 8.63171 20.5741 8.48364 20.383C8.34205 20.1992 8.24543 19.9849 8.20153 19.757C8.15762 19.5292 8.16764 19.2943 8.23079 19.071L9.55499 14L7.36331 13.118C7.13488 13.0264 6.93181 12.8812 6.77126 12.6946C6.6107 12.508 6.49737 12.2855 6.44083 12.0458C6.38428 11.8062 6.38618 11.5564 6.44638 11.3177C6.50657 11.0789 6.62328 10.8581 6.78666 10.674L13.1408 3.522C13.2803 3.35968 13.4529 3.22912 13.647 3.13908C13.8411 3.04904 14.0522 3.00162 14.2661 3C14.5077 3.00122 14.7457 3.0574 14.9623 3.1643C15.179 3.27119 15.3684 3.426 15.5164 3.617C15.6579 3.80079 15.7545 4.01517 15.7984 4.24298C15.8423 4.4708 15.8323 4.70573 15.7692 4.929L14.445 10L16.6367 10.878C16.8652 10.9696 17.0682 11.1148 17.2288 11.3014C17.3893 11.488 17.5027 11.7105 17.5592 11.9502C17.6157 12.1898 17.6138 12.4396 17.5537 12.6783C17.4935 12.9171 17.3767 13.1379 17.2134 13.322L10.8602 20.478C10.7207 20.6403 10.5481 20.7709 10.354 20.8609C10.1599 20.951 9.94882 20.9984 9.73488 21ZM14.2851 4.542L7.93297 11.693L11.3799 13.073L9.71489 19.458L16.0681 12.307L12.6211 10.927L14.2851 4.542Z" fill="#2D2D2D"/>
</svg>
