<svg width="24" height="24" viewBox="0 0 24 24" fill="none" xmlns="http://www.w3.org/2000/svg">
<path d="M4.88887 3H19.1109C19.6019 3 19.9998 3.45472 19.9998 4.01568L20 5.62658C20.0001 5.89606 19.9064 6.15449 19.7396 6.34503L14.038 12.8606C13.8713 13.0511 13.7776 13.3095 13.7776 13.5789V19.9836C13.7776 20.6445 13.2342 21.1295 12.6732 20.9692L10.8954 20.4613C10.4997 20.3482 10.2221 19.9419 10.2221 19.4757V13.5789C10.2221 13.3095 10.1285 13.0511 9.96178 12.8606L4.26034 6.34497C4.09364 6.15447 4 5.89609 4 5.62669V4.01582C4 3.4548 4.39796 3 4.88887 3Z" stroke="#2D2D2D" stroke-width="2" stroke-linecap="round" stroke-linejoin="round"/>
</svg>
