<svg width="24" height="24" viewBox="0 0 24 24" fill="none" xmlns="http://www.w3.org/2000/svg">
<path d="M12 21C11.6409 20.9995 11.2947 20.8655 11.0286 20.624C9.73204 19.4398 8.57337 18.1127 7.57471 16.668C6.10566 14.6832 5.26779 12.3019 5.17017 9.834C5.17017 8.02151 5.88974 6.28326 7.17059 5.00163C8.45144 3.72001 10.1886 3 12 3C13.8114 3 15.5486 3.72001 16.8295 5.00163C18.1103 6.28326 18.8299 8.02151 18.8299 9.834C18.7319 12.3021 17.8941 14.6837 16.4254 16.669C15.4263 18.1137 14.2673 19.4408 12.9705 20.625C12.7047 20.8661 12.3588 20.9998 12 21ZM12 4.519C10.5916 4.52032 9.24117 5.08069 8.24515 6.07713C7.24912 7.07357 6.68884 8.42469 6.68725 9.834C6.78428 11.9964 7.53105 14.0791 8.82996 15.81C9.74541 17.1411 10.8089 18.3639 12 19.455C13.192 18.3647 14.2556 17.1418 15.1701 15.81C16.469 14.0791 17.2158 11.9964 17.3128 9.834C17.3115 8.42452 16.7514 7.07314 15.7553 6.07648C14.7592 5.07983 13.4087 4.51932 12 4.518V4.519ZM12 12.872C11.3998 12.872 10.813 12.6939 10.3139 12.3602C9.81479 12.0266 9.42576 11.5523 9.19601 10.9974C8.96626 10.4426 8.90609 9.83197 9.02312 9.24288C9.14015 8.65379 9.42913 8.11264 9.8535 7.68787C10.2779 7.2631 10.8186 6.97377 11.4073 6.85648C11.996 6.73918 12.6062 6.79918 13.1609 7.02889C13.7155 7.2586 14.1896 7.64771 14.5232 8.14701C14.8568 8.64631 15.035 9.23338 15.0352 9.834C15.0344 10.6392 14.7144 11.4112 14.1454 11.9806C13.5763 12.55 12.8048 12.8702 12 12.871V12.872ZM12 8.316C11.6998 8.316 11.4062 8.40511 11.1565 8.57207C10.9069 8.73902 10.7123 8.97632 10.5974 9.25393C10.4826 9.53155 10.4525 9.83703 10.5112 10.1317C10.5699 10.4264 10.7145 10.6971 10.927 10.9094C11.1394 11.1218 11.4099 11.2664 11.7045 11.3249C11.999 11.3834 12.3043 11.3532 12.5817 11.2381C12.8591 11.123 13.0961 10.9281 13.2628 10.6782C13.4295 10.4283 13.5183 10.1345 13.5181 9.834C13.5179 9.43122 13.3578 9.04501 13.0732 8.7602C12.7886 8.47539 12.4026 8.31527 12 8.315V8.316Z" fill="#2D2D2D"/>
</svg>
