<svg width="24" height="24" viewBox="0 0 24 24" fill="none" xmlns="http://www.w3.org/2000/svg">
<path d="M3 12C3 10.22 3.52784 8.47991 4.51677 6.99987C5.50571 5.51983 6.91131 4.36628 8.55585 3.68509C10.2004 3.0039 12.01 2.82567 13.7558 3.17294C15.5016 3.5202 17.1053 4.37737 18.364 5.63604C19.6226 6.89471 20.4798 8.49836 20.8271 10.2442C21.1743 11.99 20.9961 13.7996 20.3149 15.4442C19.6337 17.0887 18.4802 18.4943 17.0001 19.4832C15.5201 20.4722 13.78 21 12 21C9.61386 20.9974 7.32621 20.0483 5.63896 18.361C3.95171 16.6738 3.00265 14.3861 3 12H3ZM12 19.616C13.8808 19.6177 15.6952 18.9206 17.091 17.66C16.7003 17.3494 16.255 17.1147 15.778 16.968C15.678 16.93 15.566 16.893 15.43 16.847L15.074 16.727C13.786 16.292 13.206 15.941 12.957 15.119C12.9358 15.0514 12.9188 14.9826 12.906 14.913C12.8178 14.4799 12.8624 14.0303 13.034 13.623C13.1549 13.3388 13.3413 13.0873 13.578 12.889C13.8919 12.6348 14.1423 12.311 14.3093 11.9431C14.4763 11.5753 14.5553 11.1737 14.54 10.77C14.5504 10.4263 14.4929 10.0839 14.3708 9.7625C14.2487 9.44106 14.0645 9.14684 13.8285 8.89671C13.5926 8.64657 13.3097 8.44541 12.9959 8.30476C12.6821 8.1641 12.3437 8.08671 12 8.077C11.6552 8.08311 11.3151 8.15808 10.9998 8.29751C10.6844 8.43695 10.4 8.63802 10.1635 8.88892C9.92694 9.13982 9.74294 9.43549 9.6223 9.75853C9.50166 10.0816 9.44682 10.4255 9.461 10.77C9.44592 11.1672 9.52126 11.5626 9.68132 11.9263C9.84139 12.2901 10.082 12.6128 10.385 12.87C10.6013 13.0469 10.7801 13.2651 10.911 13.512C11.1407 13.9476 11.2057 14.4514 11.094 14.931C11.0843 14.9843 11.0706 15.0368 11.053 15.088C10.835 15.898 10.271 16.245 9.034 16.668L8.623 16.807C8.463 16.861 8.338 16.907 8.223 16.948C7.74506 17.1007 7.30027 17.3422 6.912 17.66C8.30708 18.9199 10.1202 19.6169 12 19.616ZM15.923 10.77C15.9373 11.3715 15.8154 11.9685 15.5664 12.5162C15.3173 13.064 14.9477 13.5483 14.485 13.933C14.4071 13.9956 14.3457 14.0763 14.306 14.168C14.2459 14.3227 14.232 14.4915 14.266 14.654C14.269 14.6712 14.273 14.6883 14.278 14.705C14.349 14.939 14.654 15.123 15.516 15.415L15.871 15.533C16.017 15.582 16.134 15.623 16.247 15.663C16.9012 15.8682 17.5085 16.2006 18.034 16.641C18.9019 15.5138 19.4367 14.1661 19.5779 12.7506C19.7191 11.335 19.461 9.90825 18.8329 8.63187C18.2047 7.35548 17.2317 6.28054 16.0239 5.52883C14.8162 4.77711 13.4221 4.37869 11.9995 4.37869C10.5769 4.37869 9.1828 4.77711 7.97506 5.52883C6.76732 6.28054 5.79426 7.35548 5.16613 8.63187C4.538 9.90825 4.27991 11.335 4.4211 12.7506C4.5623 14.1661 5.09713 15.5138 5.965 16.641C6.48585 16.1974 7.08852 15.86 7.739 15.648C7.871 15.599 8.007 15.548 8.177 15.494L8.586 15.356C9.386 15.083 9.667 14.909 9.735 14.667C9.735 14.673 9.735 14.662 9.741 14.636C9.77974 14.4746 9.76063 14.3047 9.687 14.156C9.63149 14.0588 9.55701 13.9738 9.468 13.906C9.01872 13.5186 8.66093 13.0364 8.4204 12.4942C8.17987 11.9519 8.06259 11.363 8.077 10.77C8.06264 10.2436 8.15316 9.71964 8.34331 9.22859C8.53345 8.73753 8.81941 8.28923 9.18452 7.90978C9.54963 7.53034 9.9866 7.22734 10.47 7.01844C10.9533 6.80954 11.4735 6.69891 12 6.693C12.5253 6.70302 13.0435 6.81643 13.525 7.02676C14.0065 7.23708 14.4418 7.54021 14.8061 7.91881C15.1704 8.29741 15.4565 8.74408 15.6482 9.2333C15.8398 9.72251 15.9332 10.2447 15.923 10.77Z" fill="#2D2D2D"/>
</svg>
