<svg width="24" height="24" viewBox="0 0 24 24" fill="none" xmlns="http://www.w3.org/2000/svg">
<path d="M11.2916 12.718L5.93302 12.7163C5.83953 12.7165 5.74692 12.6984 5.66047 12.6628C5.57403 12.6273 5.49544 12.575 5.4292 12.5091C5.36296 12.4432 5.31036 12.3648 5.2744 12.2785C5.23845 12.1923 5.21985 12.0997 5.21965 12.0063C5.21946 11.9128 5.23769 11.8201 5.27329 11.7337C5.30889 11.6472 5.36116 11.5686 5.42714 11.5023C5.49311 11.436 5.57148 11.3834 5.65778 11.3474C5.74408 11.3114 5.83661 11.2927 5.9301 11.2925L11.2886 11.2942L12.7125 11.2904L18.071 11.2855C18.2594 11.2854 18.44 11.3602 18.5732 11.4933C18.7063 11.6265 18.7811 11.8071 18.781 11.9955C18.781 12.1838 18.7061 12.3645 18.5729 12.4977C18.4396 12.631 18.2589 12.7059 18.0706 12.7059L12.712 12.7109L11.2916 12.718Z" fill="#2D2D2D"/>
</svg>
