<svg width="24" height="24" viewBox="0 0 24 24" fill="none" xmlns="http://www.w3.org/2000/svg">
<path d="M17.3343 22H6.66685C5.95983 21.9992 5.28203 21.7355 4.78209 21.2668C4.28215 20.7982 4.00089 20.1628 4 19.5L4 4.5C4.00089 3.83722 4.28215 3.20182 4.78209 2.73316C5.28203 2.2645 5.95983 2.00084 6.66685 2H12.8888C13.0056 1.99995 13.1212 2.0215 13.2291 2.0634C13.337 2.1053 13.435 2.16675 13.5176 2.24421L19.7406 8.07684C19.8233 8.15413 19.8888 8.24603 19.9333 8.34721C19.9778 8.4484 20.0005 8.55686 20 8.66632V19.5C19.9991 20.1626 19.718 20.7978 19.2183 21.2665C18.7186 21.7351 18.0411 21.9989 17.3343 22ZM6.66685 3.66632C6.43108 3.66659 6.20505 3.75452 6.03833 3.9108C5.87162 4.06709 5.77782 4.27898 5.77753 4.5V19.5C5.77782 19.721 5.87162 19.9329 6.03833 20.0892C6.20505 20.2455 6.43108 20.3334 6.66685 20.3337H17.3343C17.57 20.3334 17.7961 20.2455 17.9628 20.0892C18.1295 19.9329 18.2233 19.721 18.2236 19.5V9.5H14.6674C13.9604 9.49916 13.2826 9.2355 12.7826 8.76684C12.2827 8.29818 12.0014 7.66278 12.0006 7V3.66632H6.66685ZM13.7781 4.84211V7C13.7784 7.22092 13.8722 7.4327 14.039 7.58882C14.2057 7.74494 14.4317 7.83263 14.6674 7.83263H16.966L13.7781 4.84211ZM14.6674 17.8337H9.3337C9.21433 17.8377 9.09533 17.8191 8.98379 17.779C8.87226 17.7389 8.77048 17.6782 8.68453 17.6004C8.59858 17.5227 8.53022 17.4295 8.48354 17.3264C8.43685 17.2233 8.41278 17.1125 8.41278 17.0005C8.41278 16.8886 8.43685 16.7777 8.48354 16.6747C8.53022 16.5716 8.59858 16.4784 8.68453 16.4006C8.77048 16.3229 8.87226 16.2622 8.98379 16.2221C9.09533 16.182 9.21433 16.1634 9.3337 16.1674H14.6674C14.8977 16.175 15.1157 16.2662 15.2757 16.4216C15.4357 16.577 15.5251 16.7845 15.5251 17.0005C15.5251 17.2165 15.4357 17.4241 15.2757 17.5795C15.1157 17.7349 14.8977 17.826 14.6674 17.8337ZM12.0006 14.5H9.3337C9.21433 14.504 9.09533 14.4854 8.98379 14.4453C8.87226 14.4052 8.77048 14.3445 8.68453 14.2667C8.59858 14.189 8.53022 14.0958 8.48354 13.9927C8.43685 13.8896 8.41278 13.7788 8.41278 13.6668C8.41278 13.5549 8.43685 13.444 8.48354 13.341C8.53022 13.2379 8.59858 13.1447 8.68453 13.067C8.77048 12.9892 8.87226 12.9285 8.98379 12.8884C9.09533 12.8483 9.21433 12.8297 9.3337 12.8337H12.0006C12.2308 12.8414 12.4489 12.9325 12.6089 13.0879C12.7689 13.2433 12.8583 13.4509 12.8583 13.6668C12.8583 13.8828 12.7689 14.0904 12.6089 14.2458C12.4489 14.4012 12.2308 14.4923 12.0006 14.5Z" fill="#2D2D2D"/>
</svg>
