<svg width="36" height="24" viewBox="0 0 36 24" fill="none" xmlns="http://www.w3.org/2000/svg">
<path d="M29 12C29 14.7614 26.7614 17 24 17C21.2386 17 19 14.7614 19 12C19 9.23858 21.2386 7 24 7C26.7614 7 29 9.23858 29 12Z" fill="#2D2D2D"/>
<path fill-rule="evenodd" clip-rule="evenodd" d="M2 12C2 6.47715 6.47715 2 12 2H24C29.5228 2 34 6.47715 34 12C34 17.5228 29.5228 22 24 22H12C6.47715 22 2 17.5228 2 12ZM12 4H24C28.4183 4 32 7.58172 32 12C32 16.4183 28.4183 20 24 20H12C7.58172 20 4 16.4183 4 12C4 7.58172 7.58172 4 12 4Z" fill="#2D2D2D"/>
</svg>
