<svg width="24" height="24" viewBox="0 0 24 24" fill="none" xmlns="http://www.w3.org/2000/svg">
<path d="M17.0148 21H6.98633C6.32165 20.9992 5.68444 20.7346 5.21445 20.2643C4.74445 19.794 4.48004 19.1564 4.4792 18.4914V9.94718L3.299 10.8059C3.15661 10.9103 2.98466 10.9666 2.80813 10.9665C2.63146 10.9667 2.45927 10.9108 2.31627 10.807C2.17327 10.7032 2.06681 10.5567 2.01217 10.3886C1.95754 10.2205 1.95753 10.0394 2.01215 9.87128C2.06677 9.70316 2.17322 9.55668 2.3162 9.45285L10.5227 3.47963C10.9513 3.16791 11.4676 3 11.9974 3C12.5273 3 13.0435 3.16791 13.4721 3.47963L21.6839 9.45285C21.7728 9.51735 21.8481 9.59875 21.9055 9.6924C21.9629 9.78606 22.0013 9.89012 22.0184 9.99863C22.0356 10.1071 22.0312 10.218 22.0055 10.3248C21.9798 10.4316 21.9333 10.5323 21.8687 10.6211C21.7906 10.7273 21.6887 10.8138 21.5712 10.8736C21.4537 10.9334 21.3238 10.9649 21.192 10.9654C21.0154 10.9657 20.8434 10.9095 20.7011 10.8049L19.5209 9.94613V18.4892C19.5206 19.1545 19.2566 19.7925 18.7868 20.2632C18.317 20.7339 17.6797 20.9989 17.0148 21ZM11.1645 11.802H12.8356C13.5002 11.8026 14.1374 12.0669 14.6074 12.537C15.0774 13.0071 15.3419 13.6446 15.3427 14.3096V19.3269H17.0148C17.2365 19.3266 17.449 19.2384 17.6057 19.0815C17.7625 18.9247 17.8506 18.7121 17.8509 18.4903V8.73141L12.4925 4.8306C12.3495 4.72669 12.1773 4.67072 12.0006 4.67072C11.8239 4.67072 11.6517 4.72669 11.5087 4.8306L6.15027 8.73141V18.4903C6.15055 18.7121 6.23872 18.9247 6.39545 19.0815C6.55218 19.2384 6.76468 19.3266 6.98633 19.3269H8.6574V14.3096C8.65824 13.6446 8.92268 13.0071 9.39271 12.537C9.86274 12.0669 10.4999 11.8026 11.1645 11.802ZM11.1645 13.4741C10.943 13.4741 10.7305 13.5621 10.5737 13.7187C10.417 13.8754 10.3287 14.0879 10.3285 14.3096V19.3269H13.6717V14.3096C13.6714 14.0879 13.5832 13.8754 13.4264 13.7187C13.2696 13.5621 13.0572 13.4741 12.8356 13.4741H11.1645Z" fill="#2D2D2D"/>
</svg>
